:SAMPLES-PER-SECOND 30
:FULLY-SPECIFIED
:DEGREES
369
root  64.6413 35.1505 15.2515 -136.417 3.40756 -179.995
RightUpLeg  -86.7414 -22.7055 37.5446
RightLeg  47.58 -0.399432 -0.817554
RightFoot  -10.0233 0.0689945 -11.8036
RightToes  0.000482159 0.542163 -0.142577
Spine  68.1295 -4.62146 7.04975
Spine1  6.78371 0.132921 -3.30421
HEad  -46.6916 1.35886 -4.25621
LeftShoulder1  9.60265 -26.8557 -25.2335
LeftArm  -71.23 -68.4356 2.538
LeftForeArm  4.42805 -21.7061 -4.12443
LeftHand  -0.25398 0.0180481 5.50724
RightShoulder  1.62498 8.57211 5.73305
RightArm  -74.6006 70.5858 -11.0244
RightForeArm  -15.58 11.6921 3.0673
RightHand  0.361213 8.89821 2.42574
LeftUpLeg  -102.624 35.6622 -52.1796
LeftLeg  39.8958 -9.34881 -7.91772
LeftFoot  -0.0288909 -0.285679 2.87718
LeftToes  1.06248e-005 4.65855e-005 -8.18498e-006
370
root  64.6251 35.2977 15.2609 -136.906 3.30646 179.581
RightUpLeg  -86.448 -23.4749 37.4905
RightLeg  47.0543 -0.245648 -0.627448
RightFoot  -9.6527 0.115343 -12.1646
RightToes  0.000482159 0.542163 -0.142577
Spine  67.9009 -4.96268 7.20449
Spine1  6.82356 -0.0582262 -3.64847
HEad  -46.8293 1.08791 -4.28183
LeftShoulder1  9.76724 -26.9224 -25.7223
LeftArm  -68.6836 -68.0228 -0.34381
LeftForeArm  5.07959 -23.1127 -4.64215
LeftHand  -0.25398 0.0180481 5.50724
RightShoulder  1.73487 8.98073 6.22781
RightArm  -72.2596 69.6393 -7.88429
RightForeArm  -14.044 13.0523 3.2068
RightHand  0.529461 8.61864 3.87491
LeftUpLeg  -101.789 35.7393 -52.6861
LeftLeg  38.9337 -9.63648 -7.8909
LeftFoot  1.51245 -0.522741 4.56177
LeftToes  1.06248e-005 4.65855e-005 -8.18498e-006
371
root  64.5775 35.4716 15.2853 -137.433 3.38878 179.337
RightUpLeg  -85.8725 -24.1378 37.4357
RightLeg  46.1961 -0.0152882 -0.354656
RightFoot  -8.98372 0.197912 -12.4916
RightToes  0.000482159 0.542163 -0.142577
Spine  67.487 -4.97335 7.33121
Spine1  6.76509 -0.0275793 -3.69287
HEad  -47.0423 0.842127 -4.37693
LeftShoulder1  9.99719 -26.6808 -26.7822
LeftArm  -64.7736 -68.0381 -4.46383
LeftForeArm  6.13639 -24.4562 -4.91776
LeftHand  -0.25398 0.0180481 5.50724
RightShoulder  1.81791 9.2099 6.6803
RightArm  -69.6486 68.687 -4.67177
RightForeArm  -12.6173 13.8949 3.31309
RightHand  0.730703 8.5574 5.56266
LeftUpLeg  -100.989 36.0203 -52.9963
LeftLeg  37.9983 -9.9493 -7.88371
LeftFoot  2.97175 -0.708182 5.49741
LeftToes  1.06248e-005 4.65855e-005 -8.18498e-006
372
root  64.4937 35.6735 15.3186 -138.079 3.50397 179.168
RightUpLeg  -85.0141 -24.8815 37.3117
RightLeg  45.0481 0.279035 -0.0284539
RightFoot  -8.2261 0.289558 -12.6211
RightToes  0.000482159 0.542163 -0.142577
Spine  66.8366 -4.89509 7.40508
Spine1  6.89115 0.0365406 -3.58178
HEad  -47.5474 0.691728 -4.60078
LeftShoulder1  10.1406 -26.5975 -27.3695
LeftArm  -60.6228 -67.1621 -9.07237
LeftForeArm  7.41729 -26.2225 -5.23972
LeftHand  -0.25398 0.0180481 5.50724
RightShoulder  1.91771 9.35 7.37677
RightArm  -66.555 67.75 -1.77011
RightForeArm  -11.3395 14.8607 3.61178
RightHand  0.945834 8.39338 7.44137
LeftUpLeg  -100.035 36.4229 -53.2498
LeftLeg  36.8666 -10.1253 -7.70472
LeftFoot  4.25226 -0.848428 6.00247
LeftToes  1.06248e-005 4.65855e-005 -8.18498e-006
373
root  64.3773 35.9139 15.3652 -139.066 3.56866 178.961
RightUpLeg  -83.7473 -25.8703 36.9229
RightLeg  43.7012 0.566164 0.262959
RightFoot  -7.47426 0.376797 -12.5869
RightToes  0.000482159 0.542163 -0.142577
Spine  66.0826 -4.93736 7.51677
Spine1  7.30179 0.0893999 -3.61436
HEad  -48.3066 0.581728 -4.77245
LeftShoulder1  10.1709 -26.9503 -27.0609
LeftArm  -56.3417 -64.9415 -13.6118
LeftForeArm  8.12411 -28.5937 -5.75145
LeftHand  -0.25398 0.0180481 5.50724
RightShoulder  2.08835 9.71183 8.3622
RightArm  -62.7838 66.1187 0.976096
RightForeArm  -9.69017 16.7215 4.1276
RightHand  1.1128 7.95201 9.14924
LeftUpLeg  -98.4106 36.9696 -53.1143
LeftLeg  35.4019 -9.9937 -7.20346
LeftFoot  5.31428 -0.996759 6.57999
LeftToes  1.06248e-005 4.65855e-005 -8.18498e-006
374
root  64.2438 36.1964 15.4352 -140.52 3.60522 178.816
RightUpLeg  -81.8278 -27.022 36.1842
RightLeg  42.106 0.769862 0.440751
RightFoot  -6.55489 0.481987 -12.5225
RightToes  0.000482159 0.542163 -0.142577
Spine  65.4329 -4.96844 7.68156
Spine1  7.75376 0.270466 -3.77603
HEad  -49.06 0.420467 -4.74357
LeftShoulder1  10.2208 -27.2913 -26.8363
LeftArm  -51.2142 -62.2846 -18.5874
LeftForeArm  8.69087 -31.3628 -6.39702
LeftHand  -0.25398 0.0180481 5.50724
RightShoulder  2.38451 10.3256 9.96811
RightArm  -58.5312 63.5802 3.37519
RightForeArm  -7.64464 19.5131 4.68247
RightHand  1.19947 7.47139 10.2931
LeftUpLeg  -95.9181 37.7867 -52.1992
LeftLeg  33.6576 -9.67922 -6.52672
LeftFoot  6.16936 -1.16179 7.28879
LeftToes  1.06248e-005 4.65855e-005 -8.18498e-006
375
root  64.0947 36.5132 15.5241 -142.35 3.59491 178.716
RightUpLeg  -79.3466 -28.3246 35.1598
RightLeg  40.2454 0.934468 0.554954
RightFoot  -5.44297 0.609354 -12.4753
RightToes  0.000482159 0.542163 -0.142577
Spine  64.9342 -4.89217 7.82267
Spine1  7.9718 0.533081 -3.86285
HEad  -49.6832 0.127545 -4.55569
LeftShoulder1  10.3491 -27.2907 -27.2672
LeftArm  -45.5572 -59.6755 -23.9905
LeftForeArm  10.17 -34.3368 -7.08891
LeftHand  -0.25398 0.0180481 5.50724
RightShoulder  2.7871 10.8325 12.4084
RightArm  -54.1978 60.7987 5.35771
RightForeArm  -5.66057 22.569 5.14474
RightHand  1.24441 7.08727 11.0506
LeftUpLeg  -92.5663 38.7819 -50.5062
LeftLeg  31.5931 -9.30848 -5.78625
LeftFoot  6.95508 -1.29633 7.77449
LeftToes  1.06248e-005 4.65855e-005 -8.18498e-006
376
root  63.9206 36.8467 15.6152 -144.351 3.41225 178.516
RightUpLeg  -76.6771 -29.8898 33.9935
RightLeg  38.2429 1.1297 0.674062
RightFoot  -4.36055 0.725974 -12.3237
RightToes  0.000482159 0.542163 -0.142577
Spine  64.496 -4.8126 7.84445
Spine1  7.81851 0.586014 -3.6127
HEad  -50.0726 -0.171482 -4.55279
LeftShoulder1  10.5827 -27.1548 -28.2039
LeftArm  -40.6546 -56.6011 -28.3206
LeftForeArm  12.2846 -37.3614 -7.81237
LeftHand  -0.25398 0.0180481 5.50724
RightShoulder  3.18485 11.1561 14.9275
RightArm  -50.1618 58.1866 7.6249
RightForeArm  -3.73491 25.3584 5.62305
RightHand  1.28456 6.69481 11.8166
LeftUpLeg  -88.3952 39.6439 -48.1999
LeftLeg  29.157 -8.73423 -4.90572
LeftFoot  7.81043 -1.35924 7.763
LeftToes  1.06248e-005 4.65855e-005 -8.18498e-006
377
root  63.7286 37.1782 15.7061 -146.412 2.95757 178.258
RightUpLeg  -73.9223 -31.6537 32.7578
RightLeg  36.1831 1.26798 0.726714
RightFoot  -3.42648 0.811222 -12.0028
RightToes  0.000482159 0.542163 -0.142577
Spine  63.8642 -4.86618 7.95295
Spine1  7.65846 0.525992 -3.3244
HEad  -50.1003 -0.599373 -4.72875
LeftShoulder1  10.8463 -27.2252 -28.9977
LeftArm  -37.0054 -53.1855 -31.1656
LeftForeArm  14.1521 -40.008 -8.49717
LeftHand  -0.25398 0.0180481 5.50724
RightShoulder  3.49274 11.228 17.0865
RightArm  -46.6601 55.5584 10.2336
RightForeArm  -1.764 27.9029 6.12081
RightHand  1.32195 6.38813 12.5055
LeftUpLeg  -83.5884 40.1806 -45.3138
LeftLeg  26.549 -7.92466 -3.95259
LeftFoot  8.72938 -1.38216 7.49687
LeftToes  1.06248e-005 4.65855e-005 -8.18498e-006
378
root  63.5364 37.4954 15.8091 -148.612 2.26091 178.117
RightUpLeg  -70.794 -33.3784 31.3055
RightLeg  34.057 1.18467 0.602754
RightFoot  -2.56632 0.880215 -11.6436
RightToes  0.000482159 0.542163 -0.142577
Spine  63.0579 -4.99129 8.09542
Spine1  7.58971 0.407534 -3.04377
HEad  -49.6936 -0.941486 -5.01479
LeftShoulder1  11.1646 -26.7358 -30.6632
LeftArm  -33.0286 -50.4921 -33.1118
LeftForeArm  15.3447 -41.8642 -9.02231
LeftHand  -0.25398 0.0180481 5.50724
RightShoulder  3.7784 11.3603 18.9377
RightArm  -43.6441 52.8046 12.7292
RightForeArm  0.101586 30.1777 6.57895
RightHand  1.32237 6.21965 12.7043
LeftUpLeg  -78.3535 40.4393 -41.7994
LeftLeg  24.0412 -7.09502 -3.11942
LeftFoot  9.66454 -1.43268 7.3963
LeftToes  1.06248e-005 4.65855e-005 -8.18498e-006
379
root  63.3466 37.7911 15.9221 -151.07 1.38954 178.117
RightUpLeg  -67.0857 -34.9856 29.4334
RightLeg  31.9312 0.850168 0.320919
RightFoot  -1.74027 0.939973 -11.2835
RightToes  0.000482159 0.542163 -0.142577
Spine  62.1381 -5.13668 8.26752
Spine1  7.64275 0.310284 -2.96926
HEad  -49.1925 -1.24836 -5.05985
LeftShoulder1  11.2901 -25.55 -32.6411
LeftArm  -27.9724 -48.7196 -35.5503
LeftForeArm  16.5741 -43.155 -9.38173
LeftHand  -0.25398 0.0180481 5.50724
RightShoulder  4.09436 11.4392 21.0605
RightArm  -40.9399 50.1233 14.6589
RightForeArm  1.03248 32.0845 7.01668
RightHand  1.24148 5.81358 12.3649
LeftUpLeg  -72.7823 40.5082 -37.741
LeftLeg  21.7382 -6.18575 -2.38337
LeftFoot  10.643 -1.48083 7.27854
LeftToes  1.06248e-005 4.65855e-005 -8.18498e-006
380
root  63.1535 38.063 16.0271 -153.745 0.329056 178.173
RightUpLeg  -62.9739 -36.6422 27.2506
RightLeg  29.9195 0.379315 -0.00781403
RightFoot  -0.999279 0.968087 -10.73
RightToes  0.000482159 0.542163 -0.142577
Spine  61.2803 -5.17421 8.29685
Spine1  7.58641 0.121784 -2.68191
HEad  -48.7842 -1.43145 -5.12564
LeftShoulder1  11.2376 -24.3642 -34.1187
LeftArm  -22.9175 -46.9274 -38.1508
LeftForeArm  17.7431 -44.3065 -9.71071
LeftHand  -0.25398 0.0180481 5.50724
RightShoulder  4.35192 11.4666 22.8392
RightArm  -38.1637 47.4627 16.6581
RightForeArm  0.0704977 33.5471 7.46178
RightHand  1.05918 4.9036 11.4952
LeftUpLeg  -67.2283 40.5031 -33.6649
LeftLeg  19.7631 -5.20148 -1.74211
LeftFoot  11.6718 -1.43669 6.69916
LeftToes  1.06248e-005 4.65855e-005 -8.18498e-006
